HIERARCHY
ROOT Hips
{
    OFFSET 0.000000 0.000000 0.000000
    CHANNELS 6 Xposition Yposition Zposition Zrotation Xrotation Yrotation
    JOINT Spine
    {
        OFFSET -0.000000 14.517291 0.000000
        CHANNELS 3 Zrotation Xrotation Yrotation
        JOINT Spine1
        {
            OFFSET -0.000000 37.558300 0.000000
            CHANNELS 3 Zrotation Xrotation Yrotation
            JOINT Neck
            {
                OFFSET -0.000000 37.404057 3.400369
                CHANNELS 3 Zrotation Xrotation Yrotation
                JOINT Head
                {
                    OFFSET -0.000000 24.785618 -3.540803
                    CHANNELS 3 Zrotation Xrotation Yrotation
                    End Site
                    {
                        OFFSET -0.000000 35.408028 0.000000
                    }
                }
            }
            JOINT LeftShoulder
            {
                OFFSET 6.992933 33.973492 -0.192664
                CHANNELS 3 Zrotation Xrotation Yrotation
                JOINT LeftArm
                {
                    OFFSET 21.527611 0.000000 0.000000
                    CHANNELS 3 Zrotation Xrotation Yrotation
                    JOINT LeftForeArm
                    {
                        OFFSET 56.353916 0.000000 0.000000
                        CHANNELS 3 Zrotation Xrotation Yrotation
                        JOINT LeftHand
                        {
                            OFFSET 47.774071 0.000000 0.000000
                            CHANNELS 3 Zrotation Xrotation Yrotation
                            End Site
                            {
                                OFFSET 26.556021 0.000000 0.000000
                            }
                        }
                    }
                }
            }
            JOINT RightShoulder
            {
                OFFSET -7.065357 33.973492 -0.192664
                CHANNELS 3 Zrotation Xrotation Yrotation
                JOINT RightArm
                {
                    OFFSET -21.527611 0.000000 0.000000
                    CHANNELS 3 Zrotation Xrotation Yrotation
                    JOINT RightForeArm
                    {
                        OFFSET -56.353916 0.000000 0.000000
                        CHANNELS 3 Zrotation Xrotation Yrotation
                        JOINT RightHand
                        {
                            OFFSET -47.774071 0.000000 0.000000
                            CHANNELS 3 Zrotation Xrotation Yrotation
                            End Site
                            {
                                OFFSET -26.556021 0.000000 0.000000
                            }
                        }
                    }
                }
            }
        }
    }
    JOINT LeftUpLeg
    {
        OFFSET 17.704014 0.000000 0.000000
        CHANNELS 3 Zrotation Xrotation Yrotation
        JOINT LeftLeg
        {
            OFFSET -0.000000 -81.181816 0.000000
            CHANNELS 3 Zrotation Xrotation Yrotation
            JOINT LeftFoot
            {
                OFFSET -0.000000 -62.821102 0.000000
                CHANNELS 3 Zrotation Xrotation Yrotation
                JOINT LeftToeBase
                {
                    OFFSET -0.000000 -11.507608 26.556021
                    CHANNELS 3 Zrotation Xrotation Yrotation
                    End Site
                    {
                        OFFSET -0.000000 0.000000 7.081605
                    }
                }
            }
        }
    }
    JOINT RightUpLeg
    {
        OFFSET -17.704014 0.000000 0.000000
        CHANNELS 3 Zrotation Xrotation Yrotation
        JOINT RightLeg
        {
            OFFSET -0.000000 -81.181816 0.000000
            CHANNELS 3 Zrotation Xrotation Yrotation
            JOINT RightFoot
            {
                OFFSET -0.000000 -62.821102 0.000000
                CHANNELS 3 Zrotation Xrotation Yrotation
                JOINT RightToeBase
                {
                    OFFSET -0.000000 -11.507608 26.556021
                    CHANNELS 3 Zrotation Xrotation Yrotation
                    End Site
                    {
                        OFFSET -0.000000 0.000000 7.081605
                    }
                }
            }
        }
    }
}
MOTION
Frames:    11
Frame Time:    0.008333
-9.913588    152.503891    -67.229973    -2.204464    -1.562548    35.530075    -0.196547    1.860112    -1.609591    -3.785367    2.261364    -0.462287    5.524556    3.654112    -14.599566    12.437475    -0.621422    -14.044060    4.997180    8.307834    -18.057592    -27.010752    23.701931    -53.980255    1.150107    -13.880181    -100.324738    11.005687    -13.549329    -10.745015    -8.393501    -1.007351    -2.027663    26.039438    -25.096260    55.047791    -19.430910    -12.307198    63.317352    -3.763866    -1.475435    35.744457    30.045090    -8.245860    -9.865265    -9.722147    41.682144    -24.979588    -8.602557    -20.901491    28.077946    0.000000    0.000000    0.000000    -1.364781    -23.840683    -7.734634    19.194242    40.503918    -12.010856    -10.983267    -17.749954    -19.520617    0.000000    0.000000    0.000000    
-9.643076    152.456360    -67.410828    -2.216696    -1.609472    35.494198    -0.181743    1.856598    -1.635500    -3.816796    2.232008    -0.471216    5.537038    3.678770    -14.585119    12.464223    -0.543323    -14.033682    5.007166    8.350236    -18.037443    -26.996801    23.678114    -54.027225    1.186400    -14.051444    -100.408401    10.689670    -13.639478    -10.658852    -8.343303    -0.993139    -1.986625    26.050920    -25.069752    55.044395    -19.435173    -12.380158    63.327095    -3.746200    -1.541429    35.799435    30.082672    -8.046686    -9.749497    -9.604490    41.162170    -25.265247    -9.660677    -20.913992    27.626818    0.000000    0.000000    0.000000    -1.471262    -23.862350    -7.699125    19.288412    40.604263    -12.052651    -10.934911    -17.782820    -19.555946    0.000000    0.000000    0.000000    
-9.353534    152.411362    -67.613510    -2.210933    -1.652655    35.445744    -0.214674    1.838358    -1.634246    -3.753939    2.259531    -0.471339    5.476266    3.653960    -14.591327    12.496570    -0.474267    -14.037118    4.967323    8.303874    -18.070707    -27.074577    23.646452    -53.999702    1.222068    -14.067396    -100.387810    10.669487    -13.618957    -10.729170    -8.389569    -0.964649    -2.009290    26.100147    -25.079947    55.105503    -19.455524    -12.386307    63.262405    -3.808392    -1.570094    35.789715    30.021654    -7.858572    -9.621484    -9.415901    40.849033    -25.507896    -10.663753    -21.142147    27.306973    0.000000    0.000000    0.000000    -1.598766    -23.886673    -7.676895    19.353102    40.726391    -12.096650    -10.852518    -17.821865    -19.551081    0.000000    0.000000    0.000000    
-9.070633    152.374985    -67.818954    -2.228066    -1.725975    35.411457    -0.161496    1.869302    -1.667299    -3.799125    2.223342    -0.482335    5.482043    3.666664    -14.572922    12.524717    -0.407481    -14.021073    4.989727    8.311353    -18.018213    -27.081259    23.641312    -54.078049    1.243452    -14.118653    -100.388901    10.709929    -13.647623    -10.713301    -8.362532    -0.992883    -1.958908    26.062103    -24.989525    55.036682    -19.502153    -12.507547    63.274460    -3.760545    -1.644988    35.763519    29.974537    -7.700787    -9.521532    -9.359881    40.542084    -25.603790    -11.753529    -21.435936    27.145897    0.000000    0.000000    0.000000    -1.693091    -23.888683    -7.623690    19.447380    40.802494    -12.188873    -10.769309    -17.823217    -19.546333    0.000000    0.000000    0.000000    
-8.770280    152.336090    -68.032707    -2.238995    -1.788908    35.398537    -0.159902    1.877754    -1.701908    -3.755203    2.201421    -0.495471    5.461830    3.669057    -14.572695    12.500559    -0.351058    -14.027905    4.967701    8.337929    -18.018080    -27.134621    23.558922    -54.127010    1.364700    -14.068600    -100.287987    10.748953    -13.464246    -10.732630    -8.380586    -0.944809    -1.955852    26.122572    -25.038118    55.095455    -19.495199    -12.467634    63.256760    -3.813195    -1.629282    35.745007    29.903011    -7.508168    -9.411887    -9.284921    40.242767    -25.667192    -12.336933    -21.735435    26.993681    0.000000    0.000000    0.000000    -1.804409    -23.894102    -7.641265    19.469549    40.908215    -12.238862    -10.634930    -17.868454    -19.496389    0.000000    0.000000    0.000000    
-8.471264    152.296738    -68.233421    -2.278118    -1.857835    35.387772    -0.111398    1.839560    -1.738751    -3.767105    2.247970    -0.505702    5.488403    3.646079    -14.563465    12.481921    -0.315253    -14.028994    4.965518    8.327963    -17.993364    -27.138205    23.554773    -54.169018    1.441531    -14.153068    -100.308258    10.657022    -13.453677    -10.770334    -8.345840    -0.979467    -1.943782    26.087551    -25.006811    55.061531    -19.471266    -12.527331    63.277882    -3.798641    -1.696714    35.766430    29.826509    -7.375732    -9.320134    -9.291394    40.055073    -25.612206    -12.430845    -21.906387    27.013577    0.000000    0.000000    0.000000    -1.876582    -23.906790    -7.669201    19.461981    41.008953    -12.264784    -10.513262    -17.895071    -19.471657    0.000000    0.000000    0.000000    
-8.159270    152.262024    -68.469666    -2.291369    -1.935366    35.356033    -0.097502    1.875900    -1.755188    -3.726391    2.203893    -0.513343    5.480278    3.633857    -14.553023    12.439703    -0.252907    -14.030422    4.976773    8.369786    -17.986898    -27.181953    23.494711    -54.249706    1.459491    -14.127760    -100.267334    10.765383    -13.418516    -10.771613    -8.369539    -0.956497    -1.934375    26.128319    -25.041494    55.064743    -19.466131    -12.474554    63.298073    -3.789845    -1.635732    35.693134    29.697004    -7.221297    -9.227995    -9.333424    39.936420    -25.479782    -12.354455    -22.108128    27.106340    0.000000    0.000000    0.000000    -1.959521    -23.918409    -7.691938    19.410105    41.133511    -12.282036    -10.348579    -17.901911    -19.381989    0.000000    0.000000    0.000000    
-7.837416    152.226563    -68.696175    -2.307626    -2.024704    35.356579    -0.039813    1.886458    -1.795535    -3.747899    2.216302    -0.525620    5.521809    3.640799    -14.539495    12.386705    -0.264860    -14.026979    4.976884    8.361932    -17.988028    -27.140923    23.537622    -54.300480    1.525110    -14.231428    -100.211815    10.756627    -13.456331    -10.872025    -8.343678    -0.949025    -1.927540    26.142603    -25.086813    55.071323    -19.410084    -12.447227    63.318012    -3.779379    -1.636362    35.717163    29.556437    -7.076089    -9.146548    -9.352428    39.904873    -25.368448    -12.183580    -22.365398    27.250221    0.000000    0.000000    0.000000    -2.063125    -23.902624    -7.655998    19.486626    41.205894    -12.344454    -10.264787    -17.890310    -19.416498    0.000000    0.000000    0.000000    
-7.509498    152.185501    -68.934143    -2.339875    -2.084408    35.347881    -0.036828    1.865490    -1.815195    -3.680219    2.233247    -0.532946    5.497606    3.630111    -14.558767    12.379246    -0.264444    -14.045964    4.963841    8.349366    -18.004227    -27.181349    23.526873    -54.330341    1.555969    -14.261527    -100.252441    10.733551    -13.441456    -10.809967    -8.381031    -1.003767    -1.944803    26.123144    -25.045837    55.016727    -19.456226    -12.430307    63.318039    -3.808191    -1.598494    35.716663    29.402750    -6.962613    -9.065592    -9.446061    40.065514    -25.102770    -11.733612    -22.719210    27.440962    0.000000    0.000000    0.000000    -2.175426    -23.924545    -7.632239    19.550678    41.292355    -12.344110    -10.185555    -17.880301    -19.471886    0.000000    0.000000    0.000000    
-7.175918    152.151001    -69.196884    -2.379652    -2.146505    35.324165    0.020635    1.859723    -1.813262    -3.709459    2.206675    -0.532334    5.584330    3.663564    -14.555203    12.294876    -0.292559    -14.059667    5.013176    8.361366    -18.043310    -27.175262    23.561672    -54.407753    1.606572    -14.357729    -100.211235    10.718539    -13.479707    -10.817307    -8.315804    -0.920831    -1.977171    26.077452    -25.122189    55.021217    -19.462244    -12.409150    63.302803    -3.773226    -1.567344    35.771019    29.232342    -6.883415    -8.941129    -9.512285    40.155151    -24.811638    -11.272945    -22.906773    27.590527    0.000000    0.000000    0.000000    -2.247351    -23.958752    -7.593218    19.515469    41.375256    -12.347999    -10.074212    -17.857798    -19.464174    0.000000    0.000000    0.000000    
-6.845294    152.119965    -69.450768    -2.419105    -2.205594    35.342072    0.031048    1.847938    -1.854661    -3.661006    2.201432    -0.547121    5.556022    3.615371    -14.552696    12.307068    -0.231111    -14.060969    5.016961    8.372289    -18.072380    -27.150160    23.586866    -54.446106    1.647108    -14.439905    -100.216827    10.685227    -13.510938    -10.807163    -8.325279    -0.997304    -1.981578    26.074116    -25.117422    54.961117    -19.440331    -12.326092    63.307819    -3.862305    -1.523606    35.754974    29.048300    -6.821324    -8.797390    -9.525385    40.362770    -24.478760    -10.831735    -23.199633    27.668930    0.000000    0.000000    0.000000    -2.285469    -23.993027    -7.730330    19.239277    41.520329    -12.210251    -9.877580    -17.864491    -19.373610    0.000000    0.000000    0.000000    
